<?xml version="1.0" encoding="UTF-8" standalone="no"?>
<!-- Generator: visioncortex VTracer 0.6.3 -->

<svg
   version="1.1"
   width="1280"
   height="620"
   id="svg440"
   sodipodi:docname="logo2.svg"
   inkscape:version="1.2 (dc2aedaf03, 2022-05-15)"
   xmlns:inkscape="http://www.inkscape.org/namespaces/inkscape"
   xmlns:sodipodi="http://sodipodi.sourceforge.net/DTD/sodipodi-0.dtd"
   xmlns="http://www.w3.org/2000/svg"
   xmlns:svg="http://www.w3.org/2000/svg">
  <defs
     id="defs444" />
  <sodipodi:namedview
     id="namedview442"
     pagecolor="#ffffff"
     bordercolor="#000000"
     borderopacity="0.25"
     inkscape:showpageshadow="2"
     inkscape:pageopacity="0.0"
     inkscape:pagecheckerboard="0"
     inkscape:deskcolor="#d1d1d1"
     showgrid="false"
     inkscape:zoom="0.67396115"
     inkscape:cx="636.53521"
     inkscape:cy="494.09376"
     inkscape:window-width="1920"
     inkscape:window-height="1017"
     inkscape:window-x="-8"
     inkscape:window-y="-8"
     inkscape:window-maximized="1"
     inkscape:current-layer="layer4" />
  <g
     inkscape:groupmode="layer"
     id="layer1"
     inkscape:label="sfondo">
    <rect
       style="fill:#04acb4;fill-opacity:1;stroke-width:0.752767"
       id="rect3001"
       width="1271.6066"
       height="619.01636"
       x="4.2950821"
       y="0.098360538"
       ry="14.702511" />
    <rect
       style="fill:#04acb4;fill-opacity:1;stroke-width:0.755906"
       id="rect3003"
       width="2.96753"
       height="5.93506"
       x="163.21416"
       y="188.43816"
       ry="1.483765" />
  </g>
  <g
     inkscape:groupmode="layer"
     id="layer2"
     inkscape:label="logo" />
  <g
     inkscape:groupmode="layer"
     id="layer4"
     inkscape:label="old">
    <path
       d="M0 0 C1.13 -0.01 2.26 -0.03 3.42 -0.04 C4.65 -0.05 5.88 -0.05 7.15 -0.06 C8.42 -0.07 9.69 -0.08 10.99 -0.09 C13.69 -0.1 16.39 -0.11 19.09 -0.12 C21.83 -0.13 24.57 -0.15 27.31 -0.18 C65.95 -0.62 65.95 -0.62 77.61 9.18 C78.22 9.68 78.83 10.18 79.46 10.7 C86.54 17.12 90.95 26.32 91.86 35.82 C92.31 46.69 90.1 55.88 82.86 64.18 C77.44 69.66 71.93 73.66 64.61 76.18 C65.09 80.89 67.27 83.75 70.17 87.3 C71.09 88.46 72.01 89.62 72.93 90.79 C73.38 91.36 73.84 91.93 74.31 92.53 C79.57 99.2 84.37 106.2 89.11 113.24 C89.56 113.9 90 114.55 90.46 115.23 C93.61 119.94 93.61 119.94 93.61 122.18 C90.07 122.32 86.53 122.41 82.99 122.49 C81.99 122.53 80.99 122.57 79.96 122.62 C75.18 122.7 72.4 122.65 68.24 120.13 C65.25 116.77 62.64 113.33 60.11 109.61 C59.59 108.89 59.07 108.17 58.54 107.42 C55.59 103.27 53 99.12 50.63 94.61 C46.21 86.49 46.21 86.49 39.61 80.18 C31.14 77.84 22.19 78.92 13.61 80.18 C13.62 81.98 13.62 81.98 13.63 83.82 C13.64 88.26 13.66 92.71 13.67 97.16 C13.67 99.08 13.68 101.01 13.69 102.94 C13.7 105.7 13.7 108.47 13.71 111.23 C13.71 112.1 13.72 112.96 13.72 113.85 C13.72 119.95 13.72 119.95 12.61 122.18 C9.65 122.23 6.69 122.27 3.74 122.3 C2.89 122.32 2.05 122.34 1.19 122.35 C0.38 122.36 -0.43 122.37 -1.26 122.37 C-2 122.38 -2.74 122.39 -3.51 122.4 C-5.39 122.18 -5.39 122.18 -7.39 120.18 C-8.37 117.27 -8.52 114.59 -8.52 111.54 C-8.52 110.62 -8.52 109.71 -8.53 108.76 C-8.53 107.78 -8.52 106.8 -8.52 105.79 C-8.52 104.26 -8.52 104.26 -8.52 102.7 C-8.53 100.54 -8.52 98.39 -8.52 96.23 C-8.51 92.95 -8.52 89.67 -8.53 86.39 C-8.53 84.29 -8.52 82.2 -8.52 80.1 C-8.52 79.12 -8.53 78.15 -8.53 77.15 C-8.51 71.73 -8.18 66.54 -7.39 61.18 C-3.48 60.45 0.21 60.05 4.18 60.05 C5.25 60.05 6.32 60.04 7.42 60.04 C9.13 60.04 9.13 60.04 10.88 60.04 C13.32 60.02 15.76 60 18.2 59.98 C22.03 59.95 25.86 59.93 29.69 59.93 C33.4 59.92 37.1 59.89 40.81 59.85 C42.51 59.86 42.51 59.86 44.25 59.87 C52.9 59.74 59.99 57.89 66.17 51.55 C69.3 46.38 69.32 41.06 68.61 35.18 C66.7 30.07 64.29 26.1 59.61 23.18 C55.45 21.56 52.01 20.93 47.56 20.94 C46.39 20.93 45.22 20.93 44.01 20.93 C42.76 20.93 41.51 20.93 40.22 20.94 C38.25 20.93 36.27 20.92 34.29 20.9 C29.43 20.87 24.57 20.86 19.72 20.87 C16.98 20.88 14.25 20.87 11.51 20.85 C8.94 20.82 6.37 20.82 3.79 20.84 C2.63 20.83 1.47 20.82 0.27 20.8 C-0.75 20.8 -1.77 20.8 -2.83 20.8 C-5.39 20.18 -5.39 20.18 -7.22 17.8 C-8.48 14.98 -8.73 13.18 -8.64 10.11 C-8.62 9.28 -8.61 8.44 -8.59 7.58 C-8.4 5.31 -8.14 3.33 -7.39 1.18 C-4.8 -0.12 -2.9 0.03 0 0 Z "
       fill="#F9FCFE"
       transform="translate(497.38916,260.823)"
       id="path204" />
    <path
       d="M0 0 C1.17 -0.01 2.35 -0.01 3.56 -0.02 C4.83 -0.02 6.11 -0.02 7.42 -0.02 C9.37 -0.03 9.37 -0.03 11.37 -0.03 C14.12 -0.04 16.88 -0.04 19.64 -0.04 C23.17 -0.04 26.71 -0.05 30.25 -0.07 C33.62 -0.08 36.99 -0.08 40.36 -0.09 C41.63 -0.09 42.91 -0.1 44.22 -0.11 C45.98 -0.1 45.98 -0.1 47.78 -0.1 C49.33 -0.1 49.33 -0.1 50.92 -0.1 C53.39 0.15 53.39 0.15 55.39 2.15 C55.63 4.58 55.76 6.9 55.8 9.34 C55.83 10.4 55.83 10.4 55.86 11.48 C55.92 13.75 55.97 16.01 56.01 18.27 C56.05 19.8 56.09 21.34 56.13 22.87 C56.23 26.63 56.31 30.39 56.39 34.15 C60.77 36.39 60.77 36.39 65.51 37.13 C68.29 35.67 70.18 33.69 72.37 31.45 C72.83 30.99 73.29 30.52 73.77 30.05 C75.23 28.56 76.69 27.07 78.14 25.58 C79.13 24.57 80.12 23.57 81.12 22.56 C83.55 20.1 85.97 17.62 88.39 15.15 C91.35 16.49 93.52 18 95.88 20.23 C96.53 20.83 97.17 21.43 97.83 22.05 C98.82 23 98.82 23 99.83 23.96 C100.48 24.57 101.14 25.19 101.81 25.83 C105.4 29.21 108.92 32.64 112.39 36.15 C113 36.75 113.61 37.36 114.23 37.99 C115.39 39.15 116.55 40.31 117.71 41.47 C119.07 42.83 120.45 44.18 121.83 45.52 C124.14 47.89 126.4 50.27 128.64 52.71 C129.32 53.45 130.01 54.2 130.72 54.96 C132.48 57.26 133.23 58.28 133.39 61.15 C131.59 63.48 131.59 63.48 128.93 66.02 C128.46 66.48 128 66.93 127.52 67.4 C126.03 68.85 124.52 70.28 123.01 71.71 C121.52 73.14 120.02 74.58 118.53 76.03 C117.18 77.34 115.81 78.64 114.45 79.94 C112.19 82.05 112.19 82.05 111.39 85.15 C112.84 89.46 112.84 89.46 115.39 93.15 C117.66 93.29 119.93 93.37 122.2 93.43 C122.88 93.44 123.56 93.46 124.26 93.48 C126.45 93.54 128.64 93.59 130.83 93.65 C133.7 93.71 136.57 93.79 139.45 93.86 C140.73 93.89 142.01 93.92 143.33 93.96 C146.39 94.15 146.39 94.15 148.39 95.15 C148.39 115.28 148.39 135.41 148.39 156.15 C142.12 156.48 135.85 156.81 129.39 157.15 C124.39 157.47 119.39 157.79 114.39 158.15 C113.4 161.12 112.41 164.09 111.39 167.15 C111.92 167.67 112.45 168.2 112.99 168.75 C118.46 174.22 123.92 179.68 129.39 185.15 C129.95 185.62 130.51 186.1 131.09 186.6 C132.92 188.78 133.19 190.32 133.39 193.15 C131.91 195.34 131.91 195.34 129.65 197.57 C128.81 198.41 127.96 199.25 127.1 200.12 C126.17 201.01 125.25 201.9 124.3 202.82 C123.37 203.75 122.43 204.67 121.47 205.62 C118.99 208.08 116.49 210.52 113.99 212.96 C111.44 215.45 108.9 217.95 106.37 220.46 C101.39 225.37 96.4 230.26 91.39 235.15 C84.78 233.05 84.78 233.05 82.42 230.32 C81.69 229.49 81.69 229.49 80.95 228.65 C80.46 228.07 79.96 227.49 79.45 226.9 C78.4 225.72 77.34 224.54 76.28 223.37 C75.78 222.81 75.28 222.25 74.77 221.68 C70.39 216.4 70.39 216.4 64.29 213.91 C61.46 214.14 59.07 214.7 56.67 216.26 C54.71 219.14 55.02 222.07 55.1 225.44 C55.1 226.73 55.11 228.02 55.12 229.35 C55.16 231.82 55.16 231.82 55.2 234.33 C55.26 239.55 55.32 244.77 55.39 250.15 C34.93 250.15 14.47 250.15 -6.61 250.15 C-8.08 247.21 -7.76 244.55 -7.79 241.27 C-7.81 239.88 -7.83 238.49 -7.86 237.1 C-7.89 234.9 -7.92 232.7 -7.94 230.51 C-7.95 228.39 -7.99 226.27 -8.04 224.15 C-8.05 222.88 -8.07 221.61 -8.08 220.3 C-8.34 217.14 -8.34 217.14 -10.21 215.21 C-13.61 213.7 -15.92 213.66 -19.61 214.15 C-22.45 216.03 -22.45 216.03 -24.89 218.74 C-25.34 219.21 -25.8 219.67 -26.27 220.15 C-27.71 221.63 -29.13 223.14 -30.55 224.65 C-31.53 225.66 -32.51 226.67 -33.49 227.68 C-35.88 230.15 -38.25 232.64 -40.61 235.15 C-43.58 234.16 -43.58 234.16 -46.61 233.15 C-46.61 232.49 -46.61 231.83 -46.61 231.15 C-47.2 230.88 -47.79 230.61 -48.4 230.34 C-50.65 229.12 -52.13 227.88 -53.94 226.08 C-54.88 225.14 -54.88 225.14 -55.84 224.19 C-56.84 223.19 -56.84 223.19 -57.86 222.16 C-58.56 221.47 -59.25 220.77 -59.97 220.06 C-61.44 218.59 -62.9 217.12 -64.37 215.65 C-66.6 213.41 -68.84 211.18 -71.08 208.95 C-72.51 207.52 -73.93 206.09 -75.36 204.66 C-76.03 204 -76.69 203.34 -77.38 202.65 C-80.97 199.03 -83.95 195.49 -86.61 191.15 C-83.18 187.04 -79.67 183.16 -75.77 179.49 C-75.09 178.83 -74.41 178.18 -73.71 177.51 C-72.32 176.19 -70.92 174.89 -69.5 173.6 C-67.68 171.86 -66.05 170.22 -64.61 168.15 C-64.44 164.99 -64.44 164.99 -65.61 162.15 C-65.96 160.48 -66.3 158.82 -66.61 157.15 C-67.6 157.16 -68.59 157.17 -69.61 157.18 C-73.27 157.21 -76.94 157.24 -80.6 157.26 C-82.19 157.27 -83.77 157.28 -85.36 157.3 C-87.64 157.32 -89.92 157.33 -92.2 157.34 C-92.91 157.35 -93.62 157.36 -94.35 157.37 C-96.11 157.37 -97.86 157.27 -99.61 157.15 C-101.61 155.15 -101.61 155.15 -101.86 152.68 C-101.86 151.64 -101.86 150.6 -101.85 149.53 C-101.86 148.36 -101.86 147.18 -101.86 145.97 C-101.86 144.7 -101.85 143.43 -101.84 142.11 C-101.84 140.81 -101.84 139.51 -101.84 138.17 C-101.84 135.41 -101.83 132.65 -101.82 129.9 C-101.8 126.36 -101.8 122.82 -101.8 119.28 C-101.8 115.91 -101.79 112.55 -101.78 109.18 C-101.78 107.9 -101.78 106.63 -101.78 105.32 C-101.77 104.14 -101.76 102.97 -101.76 101.76 C-101.75 100.72 -101.75 99.68 -101.75 98.61 C-101.61 96.15 -101.61 96.15 -100.61 94.15 C-89.39 94.15 -78.17 94.15 -66.61 94.15 C-63.61 84.82 -63.61 84.82 -67.05 79.9 C-69.77 76.81 -72.76 74.11 -75.95 71.51 C-80.03 68.16 -83.4 64.31 -86.61 60.15 C-84.65 56.64 -82.57 53.85 -79.74 51.01 C-78.58 49.85 -78.58 49.85 -77.4 48.66 C-76.16 47.42 -76.16 47.42 -74.89 46.16 C-73.61 44.88 -73.61 44.88 -72.3 43.57 C-70.5 41.76 -68.7 39.96 -66.89 38.16 C-64.11 35.4 -61.35 32.63 -58.59 29.85 C-56.84 28.1 -55.08 26.35 -53.33 24.6 C-52.5 23.77 -51.67 22.93 -50.82 22.08 C-50.05 21.31 -49.28 20.55 -48.48 19.76 C-47.81 19.08 -47.13 18.41 -46.43 17.71 C-44.61 16.15 -44.61 16.15 -41.61 15.15 C-36.93 18.11 -33.2 22.54 -29.61 26.71 C-26.06 30.77 -22.47 34.67 -17.61 37.15 C-14.39 37.25 -14.39 37.25 -11.61 36.15 C-10.29 35.82 -8.97 35.49 -7.61 35.15 C-7.61 23.93 -7.61 12.71 -7.61 1.15 C-4.96 -0.18 -2.96 0.01 0 0 Z M-3.61 5.15 C-3.94 15.71 -4.27 26.27 -4.61 37.15 C-13.61 41.65 -13.61 41.65 -18.61 43.15 C-23.15 39.17 -27.64 35.2 -31.81 30.84 C-32.6 30.01 -32.6 30.01 -33.41 29.17 C-34.45 28.08 -35.48 26.98 -36.5 25.87 C-38.08 24.16 -38.08 24.16 -40.61 22.15 C-44.11 22.43 -45.86 24 -48.29 26.41 C-49 27.1 -49.7 27.78 -50.43 28.49 C-51.17 29.24 -51.92 29.99 -52.69 30.76 C-53.47 31.52 -54.24 32.29 -55.04 33.08 C-56.67 34.7 -58.3 36.33 -59.92 37.95 C-62.42 40.45 -64.93 42.93 -67.45 45.4 C-69.03 46.98 -70.61 48.55 -72.19 50.13 C-72.95 50.88 -73.71 51.62 -74.49 52.38 C-75.18 53.08 -75.87 53.78 -76.58 54.49 C-77.19 55.1 -77.8 55.71 -78.43 56.34 C-79.84 58.08 -79.84 58.08 -79.41 60.25 C-78.31 62.87 -76.7 64.34 -74.65 66.3 C-73.85 67.07 -73.05 67.85 -72.22 68.65 C-70.53 70.27 -68.83 71.89 -67.14 73.5 C-66.34 74.28 -65.53 75.06 -64.71 75.86 C-63.97 76.56 -63.23 77.27 -62.47 77.99 C-60.61 80.15 -60.61 80.15 -58.61 85.15 C-60.59 89.11 -62.57 93.07 -64.61 97.15 C-80.45 97.64 -80.45 97.64 -96.61 98.15 C-97.85 100.63 -97.73 102.28 -97.72 105.05 C-97.72 106.07 -97.72 107.1 -97.72 108.15 C-97.72 109.25 -97.71 110.36 -97.71 111.5 C-97.71 112.63 -97.71 113.76 -97.7 114.92 C-97.7 118.54 -97.69 122.15 -97.67 125.77 C-97.67 128.22 -97.66 130.67 -97.66 133.11 C-97.65 139.12 -97.63 145.13 -97.61 151.15 C-94.67 152.62 -91.65 152.38 -88.42 152.46 C-87.35 152.49 -87.35 152.49 -86.27 152.52 C-84.01 152.59 -81.75 152.65 -79.49 152.71 C-77.95 152.75 -76.42 152.79 -74.89 152.84 C-71.13 152.95 -67.37 153.05 -63.61 153.15 C-63.42 153.81 -63.22 154.47 -63.03 155.16 C-61.08 161.74 -61.08 161.74 -58.61 168.15 C-60.23 169.94 -61.86 171.73 -63.49 173.52 C-63.98 174.06 -64.47 174.6 -64.97 175.16 C-67.44 177.86 -69.94 180.51 -72.6 183.03 C-73.97 184.32 -73.97 184.32 -75.36 185.65 C-76.2 186.42 -77.04 187.19 -77.91 187.99 C-79.86 189.95 -79.86 189.95 -79.39 192.08 C-78.52 194.38 -77.59 195.54 -75.85 197.27 C-75.28 197.86 -74.7 198.44 -74.1 199.04 C-73.16 199.97 -73.16 199.97 -72.2 200.92 C-71.55 201.57 -70.9 202.22 -70.23 202.89 C-68.86 204.26 -67.48 205.63 -66.1 206.99 C-64.01 209.06 -61.92 211.15 -59.84 213.24 C-58.5 214.57 -57.16 215.9 -55.82 217.24 C-55.21 217.85 -54.59 218.47 -53.95 219.11 C-50.08 222.91 -46.11 226.1 -41.61 229.15 C-41.04 228.54 -40.46 227.94 -39.87 227.33 C-37.72 225.09 -35.56 222.87 -33.4 220.66 C-32 219.23 -30.63 217.78 -29.25 216.34 C-28.37 215.44 -27.48 214.54 -26.57 213.62 C-25.77 212.79 -24.96 211.95 -24.13 211.09 C-21.17 208.81 -19.32 208.31 -15.61 208.15 C-13.25 209.07 -10.91 210.06 -8.61 211.15 C-7.62 211.15 -6.63 211.15 -5.61 211.15 C-4.45 214.63 -4.42 217.5 -4.33 221.18 C-4.31 221.87 -4.29 222.55 -4.27 223.25 C-4.2 226.16 -4.13 229.08 -4.06 231.99 C-4.01 234.12 -3.95 236.24 -3.89 238.37 C-3.86 239.65 -3.83 240.92 -3.8 242.23 C-3.94 245.04 -3.94 245.04 -2.61 246.15 C-0.95 246.24 0.71 246.26 2.37 246.26 C3.96 246.26 3.96 246.26 5.58 246.26 C6.74 246.25 7.89 246.25 9.08 246.24 C10.26 246.24 11.43 246.24 12.64 246.24 C16.41 246.23 20.18 246.22 23.95 246.21 C26.5 246.2 29.05 246.2 31.6 246.19 C37.86 246.18 44.12 246.16 50.39 246.15 C50.72 234.93 51.05 223.71 51.39 212.15 C53.37 211.82 55.35 211.49 57.39 211.15 C59.93 210.21 59.93 210.21 62.26 209.08 C63.04 208.72 63.83 208.36 64.63 207.99 C65.21 207.71 65.79 207.43 66.39 207.15 C66.97 207.74 67.56 208.34 68.16 208.95 C70.34 211.16 72.53 213.37 74.71 215.58 C76.12 217 77.52 218.43 78.93 219.86 C79.82 220.76 80.71 221.65 81.62 222.57 C82.44 223.4 83.26 224.23 84.1 225.08 C86.48 227.41 86.48 227.41 90.39 229.15 C102.6 216.94 114.81 204.73 127.39 192.15 C124.58 187.94 122.75 185.28 119.24 182.02 C118.49 181.29 117.73 180.57 116.95 179.82 C115.35 178.32 113.75 176.82 112.15 175.33 C111.4 174.61 110.64 173.89 109.87 173.14 C108.83 172.17 108.83 172.17 107.77 171.18 C106.39 169.15 106.39 169.15 106.62 166.53 C107.55 163.63 108.62 160.83 109.77 158.01 C110.55 156 110.55 156 110.39 153.15 C121.61 152.82 132.83 152.49 144.39 152.15 C144.41 144.62 144.43 137.09 144.44 129.56 C144.45 126.99 144.46 124.43 144.46 121.86 C144.48 118.19 144.48 114.51 144.49 110.84 C144.49 109.68 144.5 108.53 144.5 107.34 C144.5 106.28 144.5 105.22 144.5 104.12 C144.5 103.18 144.51 102.25 144.51 101.28 C144.63 99.16 144.63 99.16 143.39 98.15 C135.5 96.95 127.49 97.06 119.53 97.18 C115.96 97.22 112.82 97.11 109.39 96.15 C109.26 95.24 109.14 94.33 109.01 93.4 C108.58 90.24 108.58 90.24 107.26 88.08 C106.05 85.4 106.6 83.95 107.39 81.15 C108.63 79.29 108.63 79.29 110.26 77.52 C110.88 76.85 111.5 76.17 112.14 75.48 C114.81 72.7 117.49 69.94 120.2 67.21 C120.92 66.48 120.92 66.48 121.66 65.74 C125.14 62.27 125.14 62.27 127.39 61.15 C126.13 57.54 124.78 55.15 122.1 52.44 C121.44 51.76 120.77 51.07 120.08 50.37 C119.36 49.65 118.64 48.93 117.9 48.18 C117.15 47.43 116.41 46.68 115.65 45.91 C114.08 44.33 112.51 42.76 110.93 41.19 C108.52 38.77 106.12 36.34 103.73 33.9 C102.2 32.37 100.68 30.84 99.15 29.31 C98.43 28.58 97.71 27.84 96.97 27.09 C96.3 26.42 95.63 25.76 94.93 25.07 C94.34 24.48 93.75 23.89 93.15 23.28 C91.44 21.92 91.44 21.92 89.29 22.35 C86.66 23.45 85.17 25.06 83.2 27.11 C82.42 27.91 81.64 28.71 80.83 29.53 C79.62 30.8 79.62 30.8 78.39 32.08 C76.79 33.74 75.19 35.4 73.58 37.05 C72.51 38.15 72.51 38.15 71.43 39.28 C69.45 41.09 67.91 42.24 65.39 43.15 C62.44 42.32 62.44 42.32 59.26 40.9 C58.21 40.44 57.15 39.98 56.07 39.5 C53.39 38.15 53.39 38.15 51.39 36.15 C51.07 33.07 51.07 33.07 50.97 29.17 C50.95 28.14 50.95 28.14 50.92 27.09 C50.86 24.9 50.81 22.71 50.76 20.52 C50.73 19.04 50.69 17.55 50.65 16.07 C50.55 12.43 50.47 8.79 50.39 5.15 C47.99 3.95 46.5 4.02 43.82 4.02 C42.4 4.01 42.4 4.01 40.95 4.01 C39.92 4.01 38.89 4.01 37.83 4.01 C36.25 4.01 36.25 4.01 34.64 4.01 C32.41 4.01 30.18 4.01 27.95 4.01 C24.53 4.02 21.12 4.01 17.71 4.01 C15.54 4.01 13.37 4.01 11.21 4.01 C10.19 4.01 9.16 4.01 8.11 4.01 C6.68 4.01 6.68 4.01 5.22 4.02 C4.38 4.02 3.54 4.02 2.68 4.02 C0.07 4.09 0.07 4.09 -3.61 5.15 Z "
       fill="#E9F5FA"
       transform="translate(290.61133,195.85474)"
       id="path208" />
    <path
       d="M0 0 C4.03 2.96 6.27 6.59 8.72 10.86 C10.64 14.08 12.83 17.1 15.01 20.15 C16.83 22.72 18.63 25.29 20.42 27.88 C25.31 34.9 30.34 41.82 35.36 48.74 C37.07 51.09 38.76 53.45 40.46 55.81 C41.6 57.39 42.74 58.98 43.88 60.56 C44.42 61.32 44.96 62.07 45.52 62.85 C48.87 67.49 52.3 72.04 55.93 76.47 C57 78 57 78 57 80 C57.66 80 58.32 80 59 80 C59.33 80.33 59.66 80.66 60 81 C60 80.01 59.99 79.03 59.99 78.01 C59.95 68.74 59.92 59.47 59.9 50.2 C59.89 45.44 59.87 40.67 59.85 35.9 C59.83 31.31 59.82 26.71 59.81 22.11 C59.81 20.36 59.8 18.6 59.79 16.84 C59.77 14.39 59.77 11.93 59.77 9.48 C59.77 8.75 59.76 8.02 59.75 7.26 C59.77 2.23 59.77 2.23 62 0 C63.97 -0.23 63.97 -0.23 66.35 -0.2 C67.2 -0.19 68.05 -0.18 68.93 -0.18 C70.26 -0.15 70.26 -0.15 71.62 -0.12 C72.97 -0.11 72.97 -0.11 74.34 -0.1 C76.56 -0.07 78.78 -0.04 81 0 C82.22 2.44 82.12 3.99 82.12 6.72 C82.12 8.21 82.12 8.21 82.12 9.74 C82.12 11.38 82.12 11.38 82.11 13.06 C82.11 14.21 82.11 15.36 82.11 16.55 C82.11 20.37 82.11 24.19 82.1 28.01 C82.1 30.65 82.09 33.29 82.09 35.94 C82.09 42.19 82.08 48.44 82.07 54.7 C82.06 61.82 82.06 68.94 82.05 76.06 C82.04 90.71 82.02 105.35 82 120 C78.37 121.96 75.71 122.33 71.56 122.38 C70.45 122.4 69.34 122.43 68.19 122.46 C63.55 121.79 61.43 119.86 58.6 116.18 C57.02 113.94 55.51 111.67 54 109.38 C52.85 107.65 51.69 105.94 50.54 104.22 C49.95 103.35 49.36 102.48 48.76 101.58 C46.06 97.62 43.26 93.75 40.44 89.88 C36.23 84.09 32.06 78.29 27.94 72.44 C27.45 71.74 26.95 71.04 26.45 70.32 C24.47 67.51 22.5 64.7 20.52 61.9 C19.04 59.78 17.55 57.67 16.06 55.56 C15.57 54.87 15.08 54.17 14.58 53.46 C10.85 48.17 7.05 42.92 3.25 37.69 C-0.98 31.86 -5.07 25.98 -9.01 19.96 C-11.85 15.74 -14.83 11.63 -17.85 7.54 C-21 3.22 -21 3.22 -21 1 C-15.14 -1.93 -6.23 -1.51 0 0 Z "
       fill="#F9FCFE"
       transform="translate(1034,261)"
       id="path210" />
    <path
       d="M0 0 C2.85 6.4 3.36 11.48 3.12 18.44 C2.58 28.31 2.58 28.31 4 38 C6.1 39.94 6.1 39.94 8.88 40.75 C13.86 42.82 13.86 42.82 16.06 45.5 C17 48 17.62 50.36 18 53 C17.01 53.33 16.02 53.66 15 54 C12.24 52.62 11.56 50.62 10 48 C7.82 45.35 6.3 44.73 3 44 C2.08 55.27 2.08 55.27 5.93 65.16 C8.29 66.35 8.29 66.35 10.77 67.19 C13 68 13 68 15.56 70.75 C17.44 74.99 17.81 78.43 17 83 C14.39 87.89 10.03 90.05 5 92 C4.34 92 3.68 92 3 92 C2.94 95.27 2.91 98.54 2.88 101.81 C2.86 102.74 2.84 103.67 2.82 104.63 C2.82 105.52 2.81 106.41 2.8 107.33 C2.79 108.15 2.78 108.98 2.77 109.82 C2.86 112.29 2.86 112.29 5 115 C5.91 115.41 6.81 115.82 7.75 116.25 C11.89 118.48 14.69 120.88 17 125 C18.01 129.45 17.65 132.79 15.5 136.81 C12.1 139.78 7.68 143 3 143 C3.01 144.43 3.01 144.43 3.02 145.89 C3.03 149.46 3.05 153.03 3.05 156.6 C3.06 158.14 3.07 159.68 3.08 161.22 C3.2 183.57 3.2 183.57 -0.56 188.06 C-1.37 188.7 -2.17 189.34 -3 190 C-6.35 189.18 -8.46 188.66 -10.68 185.94 C-12.39 182.14 -12.38 178.72 -12.29 174.64 C-12.29 173.84 -12.28 173.05 -12.28 172.24 C-12.26 169.72 -12.23 167.2 -12.19 164.69 C-12.17 162.98 -12.16 161.26 -12.15 159.55 C-12.11 155.37 -12.06 151.18 -12 147 C-16.66 147.48 -16.66 147.48 -20.25 150.31 C-21.68 152.51 -22.94 154.61 -24 157 C-24.99 156.34 -25.98 155.68 -27 155 C-26.93 151.92 -26.64 149.74 -24.59 147.37 C-20.98 144.21 -17.33 142.08 -13 140 C-12.77 136.61 -12.63 133.21 -12.5 129.81 C-12.43 128.85 -12.37 127.89 -12.3 126.9 C-12.22 124.07 -12.25 121.74 -13 119 C-15.38 116.62 -17.97 115.39 -21 114 C-25.78 110.44 -25.78 110.44 -27 108 C-27.37 103.54 -27.4 100.93 -25.62 96.81 C-22 92.93 -17.83 91.08 -13 89 C-12.97 85.56 -12.95 82.13 -12.94 78.69 C-12.92 77.22 -12.92 77.22 -12.91 75.73 C-12.91 74.79 -12.91 73.85 -12.9 72.89 C-12.9 72.02 -12.89 71.16 -12.89 70.27 C-12.91 67.83 -12.91 67.83 -14 65 C-14.7 64.92 -15.4 64.83 -16.12 64.75 C-20.34 63.65 -23.72 61.69 -26.38 58.19 C-27.67 53.65 -27.53 50.2 -25.62 45.88 C-23.02 43.02 -21.26 41.96 -17.84 40.32 C-16.93 39.88 -16.03 39.44 -15.1 38.99 C-14.4 38.67 -13.71 38.34 -13 38 C-12.99 37.06 -12.97 36.12 -12.96 35.16 C-12.89 31.66 -12.82 28.16 -12.74 24.66 C-12.7 23.15 -12.68 21.64 -12.65 20.12 C-12.62 17.94 -12.57 15.77 -12.51 13.59 C-12.49 12.28 -12.46 10.97 -12.43 9.62 C-11.97 5.77 -11.02 3.29 -9 0 C-5.93 -1.53 -3.3 -0.55 0 0 Z "
       fill="#E9F5FA"
       transform="translate(319,227)"
       id="path214" />
    <path
       d="M0 0 C0.96 -0.01 0.96 -0.01 1.95 -0.03 C3.21 -0.04 3.21 -0.04 4.5 -0.06 C5.34 -0.07 6.17 -0.08 7.04 -0.09 C8.8 -0.12 10.56 -0.15 12.33 -0.18 C13.09 -0.19 13.86 -0.19 14.65 -0.2 C15.83 -0.21 15.83 -0.21 17.03 -0.23 C19 0 19 0 21 2 C21.25 4.1 21.25 4.1 21.25 6.75 C21.25 7.75 21.26 8.76 21.26 9.79 C21.25 11.45 21.25 11.45 21.24 13.14 C21.24 14.29 21.25 15.45 21.25 16.65 C21.25 20.5 21.24 24.34 21.23 28.19 C21.23 30.85 21.23 33.52 21.23 36.18 C21.23 41.77 21.22 47.35 21.21 52.94 C21.19 59.4 21.18 65.87 21.19 72.34 C21.19 78.55 21.18 84.76 21.17 90.97 C21.17 93.62 21.17 96.27 21.17 98.92 C21.16 102.61 21.16 106.3 21.15 109.99 C21.15 111.65 21.15 111.65 21.15 113.35 C21.14 114.35 21.14 115.35 21.13 116.38 C21.13 117.25 21.13 118.12 21.13 119.02 C21 121 21 121 20 122 C18.58 122.09 17.16 122.11 15.75 122.1 C14.89 122.09 14.04 122.09 13.16 122.09 C12.26 122.08 11.36 122.07 10.44 122.06 C9.54 122.06 8.63 122.05 7.71 122.05 C5.47 122.04 3.24 122.02 1 122 C1 121.34 1 120.68 1 120 C0.34 120 -0.32 120 -1 120 C-1.02 107.16 -1.04 94.32 -1.05 81.48 C-1.06 75.51 -1.06 69.55 -1.08 63.59 C-1.09 57.81 -1.09 52.04 -1.09 46.27 C-1.1 44.09 -1.1 41.9 -1.11 39.71 C-1.14 26.44 -0.86 13.25 0 0 Z "
       fill="#FAFDFF"
       transform="translate(922,261)"
       id="path218" />
    <path
       d="M0 0 C0.66 0 1.32 0 2 0 C3.54 2.41 4.1 3.5 3.54 6.36 C3.09 7.54 3.09 7.54 2.62 8.75 C2.18 9.95 2.18 9.95 1.73 11.17 C1.49 11.78 1.25 12.38 1 13 C1.53 13.53 2.06 14.06 2.6 14.6 C8.07 20.07 13.53 25.53 19 31 C19.56 31.48 20.12 31.96 20.7 32.45 C22.53 34.63 22.8 36.17 23 39 C21.53 41.2 21.53 41.2 19.26 43.42 C18.42 44.26 17.58 45.1 16.71 45.97 C15.32 47.31 15.32 47.31 13.91 48.68 C12.98 49.6 12.04 50.53 11.08 51.48 C8.6 53.94 6.1 56.38 3.6 58.81 C1.05 61.3 -1.49 63.81 -4.02 66.31 C-9 71.23 -13.99 76.12 -19 81 C-25.61 78.91 -25.61 78.91 -27.96 76.17 C-28.45 75.62 -28.94 75.07 -29.44 74.5 C-29.93 73.93 -30.43 73.35 -30.94 72.75 C-31.99 71.57 -33.05 70.4 -34.11 69.23 C-34.86 68.39 -34.86 68.39 -35.62 67.53 C-40 62.26 -40 62.26 -46.09 59.77 C-48.92 59.99 -51.32 60.56 -53.72 62.11 C-55.68 65 -55.37 67.93 -55.29 71.29 C-55.29 72.58 -55.28 73.88 -55.27 75.21 C-55.23 77.67 -55.23 77.67 -55.19 80.19 C-55.13 85.41 -55.06 90.62 -55 96 C-75.46 96 -95.92 96 -117 96 C-118.47 93.06 -118.15 90.41 -118.18 87.13 C-118.2 85.74 -118.22 84.34 -118.25 82.95 C-118.28 80.75 -118.31 78.56 -118.33 76.36 C-118.34 74.24 -118.38 72.12 -118.43 70 C-118.44 68.73 -118.45 67.46 -118.47 66.15 C-118.73 63 -118.73 63 -120.6 61.06 C-124 59.56 -126.31 59.51 -130 60 C-132.84 61.88 -132.84 61.88 -135.28 64.59 C-135.73 65.06 -136.19 65.53 -136.66 66.01 C-138.1 67.49 -139.52 68.99 -140.94 70.5 C-141.92 71.51 -142.9 72.53 -143.88 73.54 C-146.27 76.01 -148.64 78.5 -151 81 C-153.97 80.01 -153.97 80.01 -157 79 C-157 78.34 -157 77.68 -157 77 C-157.59 76.73 -158.18 76.47 -158.79 76.19 C-161.04 74.98 -162.52 73.73 -164.33 71.93 C-164.96 71.31 -165.58 70.69 -166.23 70.05 C-166.9 69.38 -167.56 68.71 -168.25 68.02 C-168.95 67.32 -169.64 66.63 -170.36 65.91 C-171.82 64.45 -173.29 62.98 -174.75 61.51 C-176.98 59.27 -179.23 57.03 -181.47 54.8 C-182.9 53.38 -184.32 51.95 -185.75 50.52 C-186.42 49.85 -187.08 49.19 -187.77 48.51 C-191.35 44.89 -194.34 41.35 -197 37 C-193.56 32.89 -190.06 29.01 -186.16 25.34 C-185.48 24.69 -184.8 24.04 -184.09 23.37 C-182.71 22.05 -181.31 20.74 -179.89 19.46 C-178.07 17.71 -176.44 16.08 -175 14 C-174.81 10.77 -174.81 10.77 -176 8 C-176.35 6.89 -176.7 5.77 -177.06 4.62 C-177.53 3.33 -177.53 3.33 -178 2 C-176.35 1.67 -174.7 1.34 -173 1 C-170.53 7.44 -170.53 7.44 -168 14 C-169.62 15.79 -171.25 17.59 -172.88 19.38 C-173.37 19.92 -173.86 20.46 -174.36 21.01 C-176.83 23.72 -179.33 26.36 -181.99 28.88 C-182.9 29.75 -183.81 30.61 -184.75 31.5 C-185.59 32.27 -186.43 33.05 -187.3 33.84 C-189.26 35.8 -189.26 35.8 -188.77 37.94 C-187.92 40.2 -187.04 41.34 -185.34 43.04 C-184.5 43.88 -184.5 43.88 -183.64 44.75 C-182.73 45.64 -182.73 45.64 -181.8 46.56 C-181.18 47.18 -180.55 47.81 -179.91 48.46 C-178.58 49.78 -177.25 51.1 -175.92 52.42 C-173.89 54.42 -171.88 56.43 -169.88 58.45 C-168.58 59.74 -167.29 61.02 -165.99 62.31 C-165.4 62.9 -164.8 63.5 -164.19 64.11 C-160.37 67.87 -156.43 70.99 -152 74 C-151.43 73.4 -150.85 72.8 -150.26 72.18 C-148.11 69.95 -145.95 67.72 -143.78 65.51 C-142.39 64.08 -141.01 62.64 -139.64 61.2 C-138.75 60.3 -137.87 59.4 -136.96 58.47 C-136.15 57.64 -135.35 56.81 -134.52 55.95 C-131.58 53.68 -129.67 53.23 -126 53 C-123.3 53.67 -123.3 53.67 -120.75 54.75 C-119.9 55.1 -119.05 55.44 -118.17 55.8 C-116 57 -116 57 -114 60 C-113.68 63.19 -113.68 63.19 -113.59 67.07 C-113.53 68.95 -113.53 68.95 -113.48 70.87 C-113.44 72.46 -113.41 74.05 -113.38 75.69 C-113.25 80.74 -113.13 85.79 -113 91 C-95.51 91.33 -78.02 91.66 -60 92 C-60.04 81.56 -60.04 81.56 -60.09 71.12 C-60.09 69.18 -60.09 69.18 -60.1 67.2 C-60.1 66.51 -60.11 65.83 -60.11 65.13 C-60.11 60.23 -60.11 60.23 -59 58 C-57.07 57.08 -55.11 56.23 -53.12 55.44 C-52.06 55 -50.99 54.57 -49.88 54.12 C-47.94 53.37 -45.98 52.66 -44 52 C-43.42 52.6 -42.83 53.19 -42.23 53.8 C-40.05 56.02 -37.86 58.23 -35.67 60.44 C-34.27 61.86 -32.86 63.29 -31.46 64.71 C-30.57 65.61 -29.68 66.51 -28.77 67.43 C-27.95 68.26 -27.13 69.08 -26.29 69.94 C-23.91 72.27 -23.91 72.27 -20 74 C-8.12 62.12 3.76 50.24 16 38 C13.2 33.79 11.37 31.14 7.86 27.87 C7.1 27.15 6.34 26.42 5.56 25.67 C3.96 24.17 2.37 22.68 0.76 21.19 C0.01 20.47 -0.74 19.74 -1.52 19 C-2.56 18.02 -2.56 18.02 -3.62 17.03 C-5 15 -5 15 -4.78 12.42 C-3.93 9.79 -2.99 7.24 -1.94 4.69 C-1.58 3.8 -1.21 2.92 -0.84 2.01 C-0.56 1.35 -0.29 0.68 0 0 Z "
       fill="#E9F5FA"
       transform="translate(401,350)"
       id="path222" />
    <path
       d="M0 0 C1.39 -0 1.39 -0 2.8 -0.01 C5.87 -0.01 8.94 -0.01 12.01 -0 C14.13 -0 16.26 -0.01 18.38 -0.01 C22.84 -0.01 27.3 -0.01 31.75 -0 C37.48 0 43.2 0 48.93 -0 C53.32 -0.01 57.71 -0.01 62.09 -0 C64.21 -0 66.32 -0 68.43 -0.01 C71.38 -0.01 74.32 -0.01 77.27 0 C78.59 -0 78.59 -0 79.94 -0.01 C85.95 0.02 85.95 0.02 87.07 1.13 C87.15 2.55 87.18 3.96 87.17 5.38 C87.16 6.66 87.16 6.66 87.16 7.97 C87.14 9.32 87.14 9.32 87.13 10.69 C87.13 11.59 87.12 12.5 87.12 13.42 C87.11 15.66 87.09 17.89 87.07 20.13 C74.44 20.15 61.81 20.17 49.18 20.18 C43.31 20.19 37.45 20.19 31.59 20.2 C25.93 20.22 20.28 20.22 14.62 20.22 C12.46 20.23 10.3 20.23 8.14 20.24 C5.12 20.24 2.1 20.24 -0.91 20.24 C-1.82 20.25 -2.72 20.25 -3.65 20.25 C-9.82 20.24 -9.82 20.24 -10.93 19.13 C-11.02 17.79 -11.04 16.44 -11.03 15.09 C-11.03 14.29 -11.02 13.48 -11.02 12.64 C-11.01 11.79 -11 10.94 -10.99 10.07 C-10.99 9.21 -10.99 8.36 -10.98 7.48 C-10.97 5.36 -10.95 3.25 -10.93 1.13 C-7.55 -0.56 -3.72 -0.01 0 0 Z "
       fill="#FAFDFF"
       transform="translate(763.93188,260.87061)"
       id="path224" />
    <path
       d="M0 0 C0.8 0 1.61 0.01 2.43 0.01 C3.7 0.01 3.7 0.01 5 0 C7.8 -0.01 10.6 -0 13.41 0.01 C15.35 0 17.29 0 19.24 -0 C23.31 -0 27.39 0 31.46 0.01 C36.7 0.02 41.93 0.02 47.16 0 C51.17 -0 55.19 -0 59.2 0 C61.13 0 63.06 0 64.99 -0 C67.68 -0.01 70.38 0 73.07 0.01 C73.87 0.01 74.68 0 75.5 0 C81.02 0.04 81.02 0.04 83.25 2.27 C83.42 5.16 83.48 7.95 83.44 10.83 C83.44 12.02 83.44 12.02 83.44 13.24 C83.39 19.13 83.39 19.13 82.25 20.27 C79.52 20.38 76.82 20.42 74.09 20.42 C73.24 20.42 72.38 20.42 71.5 20.43 C68.66 20.44 65.82 20.44 62.97 20.44 C61.01 20.44 59.04 20.45 57.07 20.45 C52.95 20.46 48.82 20.46 44.69 20.46 C39.39 20.46 34.09 20.47 28.79 20.49 C24.72 20.5 20.66 20.5 16.6 20.5 C14.64 20.5 12.69 20.51 10.73 20.51 C8 20.52 5.27 20.52 2.54 20.51 C1.32 20.52 1.32 20.52 0.07 20.53 C-5.52 20.5 -5.52 20.5 -7.75 18.27 C-7.95 15.56 -8.03 12.98 -8 10.27 C-8.01 9.53 -8.01 8.8 -8.02 8.04 C-8 1.21 -6.78 0.05 0 0 Z "
       fill="#FAFDFF"
       transform="translate(633.74776,260.72894)"
       id="path226" />
    <path
       d="M0 0 C1.16 0.01 1.16 0.01 2.34 0.01 C3.15 0.01 3.97 0.01 4.8 0 C7.5 -0.01 10.2 -0 12.89 0.01 C14.77 0 16.64 0 18.51 -0 C22.43 -0 26.36 0 30.28 0.01 C35.32 0.02 40.35 0.02 45.38 0 C49.25 -0 53.11 -0 56.98 0 C58.84 0 60.69 0 62.55 -0 C65.14 -0.01 67.74 0 70.33 0.01 C71.1 0.01 71.87 0 72.66 0 C76.73 0.03 78.71 0.4 82.46 2.27 C82.46 8.21 82.46 14.15 82.46 20.27 C71.03 20.32 59.59 20.35 48.15 20.37 C42.84 20.39 37.52 20.4 32.21 20.42 C27.09 20.44 21.97 20.46 16.85 20.46 C14.89 20.46 12.93 20.47 10.97 20.48 C8.24 20.5 5.5 20.5 2.77 20.5 C1.95 20.51 1.14 20.51 0.3 20.52 C-5.31 20.5 -5.31 20.5 -7.54 18.27 C-7.73 15.56 -7.81 12.98 -7.79 10.27 C-7.79 9.53 -7.8 8.8 -7.81 8.04 C-7.78 1.36 -6.68 0.05 0 0 Z "
       fill="#F9FCFE"
       transform="translate(633.53516,362.72894)"
       id="path228" />
    <path
       d="M0 0 C0.83 -0.02 1.67 -0.04 2.52 -0.06 C3.32 -0.07 4.12 -0.07 4.94 -0.08 C5.67 -0.09 6.4 -0.1 7.15 -0.11 C7.76 0.01 8.37 0.13 9 0.25 C11.48 3.97 11.25 5.86 11.24 10.3 C11.24 11.02 11.25 11.73 11.25 12.47 C11.25 14.83 11.24 17.19 11.23 19.55 C11.23 21.2 11.23 22.84 11.23 24.48 C11.23 27.93 11.22 31.37 11.21 34.82 C11.19 39.23 11.18 43.64 11.19 48.05 C11.19 51.44 11.18 54.84 11.17 58.23 C11.17 59.86 11.17 61.48 11.17 63.11 C11.16 65.38 11.16 67.66 11.15 69.94 C11.14 71.88 11.14 71.88 11.13 73.86 C11.02 76.79 10.68 79.4 10 82.25 C6.88 82.31 3.75 82.34 0.62 82.38 C-0.26 82.39 -1.15 82.41 -2.07 82.43 C-2.92 82.43 -3.77 82.44 -4.65 82.45 C-5.43 82.46 -6.22 82.47 -7.03 82.48 C-9 82.25 -9 82.25 -11 80.25 C-11.19 77.72 -11.25 75.3 -11.23 72.77 C-11.23 72 -11.23 71.23 -11.23 70.44 C-11.23 67.88 -11.21 65.33 -11.2 62.77 C-11.19 61.01 -11.19 59.24 -11.19 57.47 C-11.18 52.81 -11.16 48.15 -11.14 43.49 C-11.12 38.74 -11.11 33.99 -11.1 29.23 C-11.08 19.91 -11.04 10.58 -11 1.25 C-7.58 -0.46 -3.77 0.02 0 0 Z "
       fill="#FAFDFF"
       transform="translate(802,300.75)"
       id="path230" />
    <path
       d="M0 0 C3.11 2.82 5.41 6.22 7.81 9.62 C8.25 10.25 8.7 10.87 9.15 11.52 C21.25 28.64 21.25 28.64 21.24 36.13 C21.25 37.37 21.25 38.61 21.25 39.88 C21.25 41.23 21.24 42.57 21.23 43.92 C21.23 45.3 21.23 46.68 21.23 48.06 C21.23 50.95 21.22 53.85 21.21 56.74 C21.19 60.45 21.18 64.16 21.19 67.87 C21.19 70.72 21.18 73.57 21.17 76.43 C21.17 77.8 21.17 79.16 21.17 80.53 C21.16 82.44 21.16 84.35 21.15 86.26 C21.14 87.89 21.14 87.89 21.13 89.55 C21 92 21 92 20 93 C16.86 93.25 13.71 93.19 10.56 93.19 C9.24 93.21 9.24 93.21 7.88 93.22 C7.03 93.23 6.19 93.23 5.32 93.23 C4.54 93.23 3.76 93.24 2.96 93.24 C1 93 1 93 -1 91 C-1.19 88.14 -1.26 85.38 -1.24 82.53 C-1.24 81.65 -1.25 80.77 -1.25 79.87 C-1.25 76.96 -1.24 74.06 -1.23 71.15 C-1.23 69.14 -1.23 67.13 -1.23 65.11 C-1.23 60.89 -1.22 56.67 -1.21 52.45 C-1.19 47.03 -1.18 41.61 -1.19 36.18 C-1.19 32.03 -1.18 27.87 -1.17 23.71 C-1.17 21.71 -1.17 19.71 -1.17 17.71 C-1.16 14.92 -1.16 12.13 -1.15 9.34 C-1.15 8.51 -1.15 7.67 -1.15 6.81 C-1.11 1.11 -1.11 1.11 0 0 Z "
       fill="#F9FCFE"
       transform="translate(1011,290)"
       id="path232" />
    <path
       d="M0 0 C1.1 0 1.1 0 2.22 0 C2.99 -0 3.75 -0.01 4.54 -0.01 C7.09 -0.02 9.64 -0.02 12.19 -0.02 C13.96 -0.02 15.72 -0.03 17.49 -0.03 C21.19 -0.04 24.9 -0.04 28.6 -0.04 C33.36 -0.04 38.11 -0.05 42.87 -0.07 C46.52 -0.08 50.16 -0.08 53.81 -0.08 C55.57 -0.08 57.32 -0.09 59.07 -0.1 C61.52 -0.11 63.97 -0.1 66.42 -0.1 C67.52 -0.1 67.52 -0.1 68.63 -0.11 C73.66 -0.08 73.66 -0.08 75.88 2.15 C76.06 4.87 76.12 7.49 76.07 10.21 C76.07 11.33 76.07 11.33 76.07 12.47 C76.02 18.01 76.02 18.01 74.88 19.15 C72.43 19.25 70.01 19.29 67.55 19.29 C66.78 19.3 66.02 19.3 65.22 19.3 C62.68 19.31 60.13 19.31 57.58 19.31 C55.81 19.32 54.05 19.32 52.28 19.32 C48.58 19.33 44.87 19.33 41.17 19.33 C36.41 19.33 31.65 19.35 26.9 19.36 C23.25 19.37 19.6 19.38 15.96 19.38 C14.2 19.38 12.45 19.38 10.7 19.39 C8.25 19.4 5.8 19.4 3.35 19.39 C2.62 19.4 1.89 19.4 1.14 19.41 C-3.89 19.37 -3.89 19.37 -6.12 17.15 C-6.29 14.42 -6.35 11.81 -6.3 9.08 C-6.3 8.34 -6.3 7.59 -6.3 6.82 C-6.25 0.04 -6.25 0.04 0 0 Z "
       fill="#FAFDFF"
       transform="translate(632.11565,311.85336)"
       id="path236" />
    <path
       d="M0 0 C2.96 1.34 5.14 2.85 7.5 5.08 C8.14 5.68 8.78 6.29 9.44 6.91 C10.1 7.54 10.76 8.17 11.44 8.81 C12.42 9.74 12.42 9.74 13.42 10.68 C17.01 14.06 20.53 17.5 24 21 C24.61 21.61 25.22 22.22 25.84 22.84 C27 24 28.16 25.16 29.32 26.32 C30.68 27.68 32.06 29.03 33.44 30.38 C35.75 32.74 38.01 35.13 40.25 37.56 C40.94 38.31 41.62 39.05 42.33 39.82 C44.09 42.11 44.85 43.13 45 46 C43.2 48.33 43.2 48.33 40.54 50.88 C39.84 51.56 39.84 51.56 39.13 52.25 C37.64 53.7 36.13 55.13 34.62 56.56 C33.13 58 31.63 59.44 30.14 60.88 C28.79 62.19 27.42 63.5 26.06 64.8 C23.8 66.91 23.8 66.91 23 70 C24.45 74.32 24.45 74.32 27 78 C29.27 78.15 31.54 78.23 33.81 78.28 C34.49 78.3 35.17 78.32 35.88 78.34 C38.06 78.4 40.25 78.45 42.44 78.5 C45.31 78.57 48.18 78.64 51.06 78.72 C52.34 78.75 53.62 78.78 54.94 78.81 C58 79 58 79 60 80 C60 100.13 60 120.26 60 141 C48.25 141.62 36.73 142.15 25 142 C24.67 141.01 24.34 140.02 24 139 C23.34 138.67 22.68 138.34 22 138 C25.54 136.82 28.34 136.89 32.07 136.9 C33.33 136.9 34.58 136.91 35.87 136.91 C37.46 136.92 39.05 136.93 40.69 136.94 C45.74 136.96 50.79 136.98 56 137 C55.67 119.51 55.34 102.02 55 84 C46.89 83.32 39.23 82.9 31.16 83.13 C23.78 83.24 23.78 83.24 21 81 C19.7 78.79 19.7 78.79 18.69 76.19 C18.17 74.91 18.17 74.91 17.64 73.61 C16.9 70.6 17.05 68.93 18 66 C19.97 63.03 22.53 60.56 25 58 C25.49 57.49 25.97 56.99 26.47 56.47 C28.08 54.8 29.69 53.15 31.31 51.5 C31.84 50.96 32.37 50.42 32.91 49.86 C34.24 48.53 35.61 47.26 37 46 C37.66 46 38.32 46 39 46 C35.03 40.46 30.79 35.46 25.99 30.62 C25.34 29.96 24.7 29.31 24.03 28.63 C22.67 27.26 21.31 25.89 19.95 24.52 C17.86 22.42 15.79 20.31 13.72 18.19 C12.4 16.85 11.07 15.52 9.74 14.18 C9.13 13.55 8.51 12.91 7.87 12.26 C7 11.39 7 11.39 6.11 10.51 C5.61 10 5.1 9.49 4.58 8.96 C3.01 7.78 3.01 7.78 0.93 8.23 C-1.74 9.29 -3.2 10.9 -5.19 12.96 C-5.97 13.76 -6.75 14.56 -7.55 15.39 C-8.77 16.65 -8.77 16.65 -10 17.94 C-11.6 19.6 -13.2 21.25 -14.81 22.9 C-15.52 23.64 -16.23 24.38 -16.96 25.14 C-18.93 26.94 -20.5 28.08 -23 29 C-25.58 28.32 -25.58 28.32 -28.25 27.12 C-29.14 26.74 -30.03 26.35 -30.95 25.95 C-31.63 25.63 -32.3 25.32 -33 25 C-33 23.02 -33 21.04 -33 19 C-32.47 19.23 -31.94 19.46 -31.39 19.69 C-30.33 20.12 -30.33 20.12 -29.25 20.56 C-28.55 20.85 -27.86 21.14 -27.14 21.44 C-24.52 22.13 -23.54 21.96 -21 21 C-18.51 18.93 -18.51 18.93 -16.02 16.31 C-15.56 15.84 -15.09 15.38 -14.62 14.9 C-13.16 13.42 -11.7 11.93 -10.25 10.44 C-9.26 9.43 -8.26 8.42 -7.27 7.42 C-4.84 4.95 -2.42 2.48 0 0 Z "
       fill="#E9F5FA"
       transform="translate(379,211)"
       id="path240" />
    <path
       d="M0 0 C2.41 2.41 3.01 4.42 4.12 7.62 C4.48 8.63 4.83 9.63 5.2 10.66 C5.46 11.43 5.73 12.21 6 13 C4.38 14.79 2.75 16.59 1.12 18.38 C0.63 18.92 0.14 19.46 -0.36 20.01 C-2.83 22.72 -5.33 25.36 -7.99 27.88 C-8.9 28.75 -9.81 29.61 -10.75 30.5 C-11.59 31.27 -12.43 32.05 -13.3 32.84 C-15.26 34.8 -15.26 34.8 -14.77 36.94 C-13.92 39.2 -13.04 40.34 -11.34 42.04 C-10.5 42.88 -10.5 42.88 -9.64 43.75 C-8.73 44.64 -8.73 44.64 -7.8 45.56 C-7.18 46.18 -6.55 46.81 -5.91 47.46 C-4.58 48.78 -3.25 50.1 -1.92 51.42 C0.11 53.42 2.12 55.43 4.12 57.45 C5.42 58.74 6.71 60.02 8.01 61.31 C8.6 61.9 9.2 62.5 9.81 63.11 C13.63 66.87 17.57 69.99 22 73 C22.57 72.4 23.15 71.8 23.74 71.18 C25.89 68.95 28.05 66.72 30.22 64.51 C31.61 63.08 32.99 61.64 34.36 60.2 C35.25 59.3 36.13 58.4 37.04 57.47 C37.85 56.64 38.65 55.81 39.48 54.95 C42.42 52.68 44.33 52.22 48 52 C50.77 52.78 50.77 52.78 53.38 53.94 C54.25 54.32 55.12 54.7 56.02 55.09 C56.68 55.39 57.33 55.69 58 56 C57.67 57.65 57.34 59.3 57 61 C54.83 60.49 53 60 51 59 C46.84 58.56 44.74 58.47 41.28 60.93 C40.43 61.81 39.59 62.69 38.72 63.59 C38.27 64.06 37.81 64.53 37.34 65.01 C35.9 66.49 34.48 67.99 33.06 69.5 C32.08 70.51 31.1 71.53 30.12 72.54 C27.73 75.01 25.36 77.5 23 80 C20.03 79.01 20.03 79.01 17 78 C17 77.34 17 76.68 17 76 C16.41 75.73 15.82 75.47 15.21 75.19 C12.96 73.98 11.48 72.73 9.67 70.93 C9.04 70.31 8.42 69.69 7.77 69.05 C7.1 68.38 6.44 67.71 5.75 67.02 C5.05 66.32 4.36 65.63 3.64 64.91 C2.18 63.45 0.71 61.98 -0.75 60.51 C-2.98 58.27 -5.23 56.03 -7.47 53.8 C-8.9 52.38 -10.32 50.95 -11.75 49.52 C-12.42 48.85 -13.08 48.19 -13.77 47.51 C-17.35 43.89 -20.34 40.35 -23 36 C-19.56 31.89 -16.06 28.01 -12.16 24.34 C-11.48 23.69 -10.8 23.04 -10.09 22.37 C-8.71 21.05 -7.31 19.74 -5.89 18.46 C-4.07 16.71 -2.44 15.08 -1 13 C-0.81 9.77 -0.81 9.77 -2 7 C-2.35 5.89 -2.7 4.77 -3.06 3.62 C-3.53 2.33 -3.53 2.33 -4 1 C-2.12 0.38 -2.12 0.38 0 0 Z "
       fill="#E9F5FA"
       transform="translate(227,351)"
       id="path242" />
    <path
       d="M0 0 C1.17 -0.01 2.35 -0.01 3.56 -0.02 C4.83 -0.02 6.11 -0.02 7.42 -0.02 C8.72 -0.03 10.02 -0.03 11.37 -0.03 C14.12 -0.04 16.88 -0.04 19.64 -0.04 C23.17 -0.04 26.71 -0.05 30.25 -0.07 C33.62 -0.08 36.99 -0.08 40.36 -0.09 C41.63 -0.09 42.91 -0.1 44.22 -0.11 C45.98 -0.1 45.98 -0.1 47.78 -0.1 C49.33 -0.1 49.33 -0.1 50.92 -0.1 C53.39 0.15 53.39 0.15 55.39 2.15 C55.65 4.77 55.79 7.3 55.84 9.93 C55.86 10.7 55.88 11.47 55.9 12.26 C55.95 13.88 55.99 15.51 56.02 17.14 C56.08 19.64 56.15 22.13 56.22 24.63 C56.26 26.21 56.3 27.78 56.34 29.36 C56.37 30.49 56.37 30.49 56.4 31.63 C56.5 36.91 56.5 36.91 55.39 39.15 C51.51 37.27 51.51 37.27 50.39 36.15 C50.23 33.86 50.14 31.56 50.07 29.27 C50.02 27.38 50.02 27.38 49.96 25.46 C49.91 23.85 49.87 22.24 49.83 20.58 C49.68 15.49 49.54 10.39 49.39 5.15 C31.9 5.15 14.41 5.15 -3.61 5.15 C-3.53 15.59 -3.53 15.59 -3.43 26.03 C-3.43 27.32 -3.42 28.62 -3.42 29.95 C-3.41 30.63 -3.4 31.31 -3.39 32.01 C-3.38 33.73 -3.49 35.44 -3.61 37.15 C-4.27 37.81 -4.93 38.47 -5.61 39.15 C-6.6 39.15 -7.59 39.15 -8.61 39.15 C-8.94 37.83 -9.27 36.51 -9.61 35.15 C-8.95 35.15 -8.29 35.15 -7.61 35.15 C-7.61 23.93 -7.61 12.71 -7.61 1.15 C-4.96 -0.18 -2.96 0.01 0 0 Z "
       fill="#F9FCFE"
       transform="translate(290.61133,195.85474)"
       id="path248" />
    <path
       d="M0 0 C12.21 0 24.42 0 37 0 C37 0.99 37 1.98 37 3 C36 4 36 4 32.95 4.11 C31.6 4.11 30.25 4.11 28.9 4.1 C27.61 4.1 26.31 4.09 24.97 4.09 C23.31 4.08 21.65 4.07 19.94 4.06 C14.68 4.04 9.42 4.02 4 4 C3.67 21.49 3.34 38.98 3 57 C13.44 57.29 13.44 57.29 23.88 57.57 C25.18 57.61 26.47 57.64 27.8 57.68 C28.49 57.7 29.17 57.72 29.87 57.73 C34.77 57.89 34.77 57.89 37 59 C37 59.99 37 60.98 37 62 C31.29 63.81 25.07 63.19 19.14 63.19 C16.88 63.19 14.62 63.21 12.36 63.22 C10.92 63.23 9.49 63.23 8.05 63.23 C6.1 63.24 6.1 63.24 4.1 63.24 C1 63 1 63 -1 61 C-1.25 58.53 -1.25 58.53 -1.24 55.39 C-1.25 54.21 -1.25 53.04 -1.25 51.83 C-1.25 50.56 -1.24 49.28 -1.23 47.97 C-1.23 46.67 -1.23 45.36 -1.23 44.02 C-1.23 41.27 -1.22 38.51 -1.21 35.75 C-1.19 32.21 -1.18 28.68 -1.19 25.14 C-1.19 21.77 -1.18 18.4 -1.17 15.03 C-1.17 13.76 -1.17 12.48 -1.16 11.17 C-1.16 10 -1.15 8.82 -1.15 7.61 C-1.14 6.57 -1.14 5.54 -1.13 4.47 C-1 2 -1 2 0 0 Z "
       fill="#F9FCFE"
       transform="translate(190,290)"
       id="path250" />
    <path
       d="M0 0 C0.99 0.33 1.98 0.66 3 1 C3.33 11.23 3.66 21.46 4 32 C21.49 32.33 38.98 32.66 57 33 C56.92 24.29 56.92 24.29 56.82 15.59 C56.81 14.5 56.81 13.42 56.8 12.3 C56.79 10.63 56.79 10.63 56.77 8.93 C57 6.06 57.51 4.43 59 2 C60.48 3.04 60.48 3.04 62 5 C62.26 7.52 62.35 9.78 62.29 12.29 C62.28 14.23 62.28 14.23 62.27 16.21 C62.24 17.85 62.22 19.49 62.19 21.19 C62.13 26.41 62.06 31.62 62 37 C41.54 37 21.08 37 0 37 C-1.47 34.06 -1.24 31.04 -1.32 27.8 C-1.34 27.1 -1.36 26.39 -1.38 25.66 C-1.44 23.4 -1.5 21.14 -1.56 18.88 C-1.61 17.34 -1.65 15.81 -1.69 14.28 C-1.8 10.52 -1.9 6.76 -2 3 C-1.34 3 -0.68 3 0 3 C0 2.01 0 1.02 0 0 Z "
       fill="#F9FCFE"
       transform="translate(284,409)"
       id="path252" />
    <path
       d="M0 0 C0.68 -0 1.36 -0 2.06 -0 C3.5 -0 4.94 -0 6.38 0 C8.59 0.01 10.79 0 13 -0 C14.39 -0 15.79 -0 17.19 0 C19.1 0 19.1 0 21.05 0 C24.09 0.13 24.09 0.13 26.09 1.13 C26.09 21.26 26.09 41.39 26.09 62.13 C14.35 62.75 2.82 63.28 -8.91 63.13 C-9.4 61.65 -9.4 61.65 -9.91 60.13 C-10.57 59.8 -11.23 59.47 -11.91 59.13 C-8.37 57.95 -5.56 58.02 -1.83 58.04 C-0.58 58.04 0.67 58.04 1.96 58.04 C4.35 58.06 4.35 58.06 6.78 58.07 C11.83 58.09 16.89 58.11 22.09 58.13 C21.76 40.64 21.43 23.15 21.09 5.13 C13.73 4.52 6.68 3.99 -0.66 4.07 C-1.46 4.07 -2.26 4.08 -3.09 4.08 C-5.03 4.1 -6.97 4.11 -8.91 4.13 C-8.91 3.14 -8.91 2.15 -8.91 1.13 C-5.95 -0.34 -3.29 0 0 0 Z "
       fill="#F9FCFE"
       transform="translate(412.90625,289.86719)"
       id="path256" />
    <path
       d="M0 0 C0.99 0.66 1.98 1.32 3 2 C3.27 4.84 3.35 7.45 3.29 10.29 C3.29 11.11 3.28 11.93 3.28 12.77 C3.26 15.39 3.23 18.01 3.19 20.62 C3.17 22.4 3.16 24.17 3.15 25.95 C3.11 30.3 3.06 34.65 3 39 C1.68 39 0.36 39 -1 39 C-2 38 -2 38 -2.11 34.49 C-2.11 32.93 -2.11 31.37 -2.1 29.81 C-2.1 28.99 -2.09 28.17 -2.09 27.32 C-2.09 24.7 -2.08 22.07 -2.06 19.44 C-2.06 17.66 -2.05 15.88 -2.05 14.1 C-2.04 9.74 -2.02 5.37 -2 1 C-1.34 0.67 -0.68 0.34 0 0 Z "
       fill="#80BCF0"
       transform="translate(314,371)"
       id="path280"
       style="fill:#04acb4;fill-opacity:1" />
    <path
       d="M0 0 C3 1 3 1 4 3 C4.09 5.25 4.11 7.5 4.1 9.76 C4.1 10.42 4.09 11.08 4.09 11.77 C4.09 13.89 4.08 16.01 4.06 18.12 C4.06 19.56 4.05 21 4.05 22.43 C4.04 25.96 4.02 29.48 4 33 C2.35 33 0.7 33 -1 33 C-2.66 28.02 -2.18 22.84 -2.19 17.62 C-2.2 16.49 -2.21 15.35 -2.22 14.18 C-2.23 13.08 -2.23 11.98 -2.23 10.85 C-2.23 9.85 -2.24 8.85 -2.24 7.81 C-1.99 4.86 -1.24 2.68 0 0 Z "
       fill="#82BDF0"
       transform="translate(313,231)"
       id="path288"
       style="fill:#04acb4;fill-opacity:1" />
    <path
       d="M0 0 C1.32 0.33 2.64 0.66 4 1 C4 6.28 4 11.56 4 17 C-1.72 15.86 -3.14 15.13 -7 11 C-7.28 7.69 -6.86 6.03 -4.71 3.47 C-3.19 2.06 -3.19 2.06 0 0 Z "
       fill="#7CB8EB"
       transform="translate(303,322)"
       id="path296"
       style="fill:#04acb4;fill-opacity:1" />
    <path
       d="M0 0 C1.32 0.33 2.64 0.66 4 1 C4 6.28 4 11.56 4 17 C-1.72 15.86 -3.14 15.13 -7 11 C-7.28 7.69 -6.86 6.03 -4.71 3.47 C-3.19 2.06 -3.19 2.06 0 0 Z "
       fill="#77B7EC"
       transform="translate(303,271)"
       id="path298"
       style="fill:#04acb4;fill-opacity:1" />
    <path
       d="M0 0 C6.92 3.08 6.92 3.08 9 7 C9.5 9.44 9.5 9.44 9 12 C6.36 15.23 4.26 17.53 0 18 C-2.54 14.19 -2.07 12.38 -1.69 7.88 C-1.59 6.61 -1.49 5.35 -1.39 4.05 C-1 1 -1 1 0 0 Z "
       fill="#77B7EC"
       transform="translate(323,347)"
       id="path300"
       style="fill:#04acb4;fill-opacity:1" />
    <path
       d="M0 0 C2.19 -0.38 2.19 -0.38 5 0 C7.8 2.67 9.63 4.77 10.75 8.5 C9.55 12.5 6.42 14.75 3 17 C2.34 17 1.68 17 1 17 C-0.47 10.98 -1.33 6.1 0 0 Z "
       fill="#7CB8EB"
       transform="translate(322,297)"
       id="path306"
       style="fill:#04acb4;fill-opacity:1" />
    <path
       d="M0 0 C1.32 0.66 2.64 1.32 4 2 C4 8.27 4 14.54 4 21 C2.68 21.33 1.36 21.66 0 22 C0 21.34 0 20.68 0 20 C-0.66 20 -1.32 20 -2 20 C-2.05 17.04 -2.09 14.08 -2.12 11.12 C-2.14 10.28 -2.16 9.44 -2.18 8.57 C-2.18 7.77 -2.19 6.96 -2.2 6.13 C-2.21 5.02 -2.21 5.02 -2.23 3.88 C-2 2 -2 2 0 0 Z "
       fill="#81BDF0"
       transform="translate(313,294)"
       id="path326"
       style="fill:#04acb4;fill-opacity:1" />
    <path
       d="M0 0 C1.65 0.33 3.3 0.66 5 1 C5 7.27 5 13.54 5 20 C3.68 20.33 2.36 20.66 1 21 C-1.41 17.29 -1.27 13.65 -1.19 9.38 C-1.19 8.69 -1.19 8.01 -1.19 7.31 C-1.14 2.28 -1.14 2.28 0 0 Z "
       fill="#85BEF0"
       transform="translate(312,269)"
       id="path328"
       style="fill:#04acb4;fill-opacity:1" />
    <path
       d="M0 0 C1.32 0.66 2.64 1.32 4 2 C4 8.27 4 14.54 4 21 C2.35 21 0.7 21 -1 21 C-1.23 17.88 -1.43 14.75 -1.62 11.62 C-1.69 10.74 -1.75 9.85 -1.82 8.93 C-1.87 8.08 -1.92 7.23 -1.98 6.35 C-2.03 5.57 -2.08 4.78 -2.14 3.97 C-2 2 -2 2 0 0 Z "
       fill="#81BDF0"
       transform="translate(313,345)"
       id="path330"
       style="fill:#04acb4;fill-opacity:1" />
    <path
       d="M0 0 C2.48 0.5 2.48 0.5 5 1 C5 7.6 5 14.2 5 21 C3.68 21 2.36 21 1 21 C-0.17 18.65 -0.12 17.26 -0.1 14.65 C-0.09 13.8 -0.09 12.95 -0.09 12.07 C-0.08 11.18 -0.07 10.29 -0.06 9.38 C-0.06 8.48 -0.05 7.58 -0.05 6.66 C-0.04 4.44 -0.02 2.22 0 0 Z "
       fill="#7FBBEE"
       transform="translate(312,320)"
       id="path332"
       style="fill:#04acb4;fill-opacity:1" />
    <path
       d="M0 0 C2.48 0.99 2.48 0.99 5 2 C5 2.66 5 3.32 5 4 C4.5 4.41 4.01 4.82 3.5 5.25 C1.72 7 1.72 7 1.62 10 C1.73 13 1.73 13 3.5 14.88 C4 15.25 4.49 15.62 5 16 C3.35 16.66 1.7 17.32 0 18 C-2.54 14.19 -2.07 12.38 -1.69 7.88 C-1.59 6.61 -1.49 5.35 -1.39 4.05 C-1 1 -1 1 0 0 Z "
       fill="#7CB8EB"
       transform="translate(323,347)"
       id="path376"
       style="fill:#04acb4;fill-opacity:1" />
    <path
       d="M0 0 C1.32 0.66 2.64 1.32 4 2 C4 3.98 4 5.96 4 8 C3.67 7.01 3.34 6.02 3 5 C2.01 5.33 1.02 5.66 0 6 C-0.66 5.67 -1.32 5.34 -2 5 C-1.12 1.12 -1.12 1.12 0 0 Z "
       fill="#85BEF0"
       transform="translate(313,294)"
       id="path436"
       style="fill:#04acb4;fill-opacity:1" />
  </g>
</svg>
